<svg version="1.2" xmlns="http://www.w3.org/2000/svg" viewBox="0 0 130 146" width="130" height="146">
	<style>
		.s0 { fill: #26224d } 
	</style>
	<path id="&lt;Path&gt;" class="s0" d="m80.1 52.04c-1.21-0.9-2.1-1.56-2.99-2.22q-5.41-4.04-10.81-8.09-0.67-0.52-1.27-1.12c-3.59-3.48-3.37-5.07 0.72-7.79 13.34-8.85 27.08-17.05 41.32-24.36 3.5-1.79 7.11-3.41 10.8-4.76 4.9-1.79 7.69-0.61 9.12 5.22 0.78 3.19 0.49 6.71 0.36 10.06-0.16 4.04-0.79 8.07-1.01 12.11-0.38 6.85-0.35 13.74-0.95 20.57-0.56 6.49-1.57 12.94-2.64 19.37-0.63 3.8-3.39 5.01-6.78 3.08-3.13-1.78-6.05-3.93-9.07-5.88-1-0.65-2.06-1.2-3.37-1.94-0.68 1.32-1.23 2.28-1.68 3.27-7.34 16-17.15 30.34-28.92 43.42q-13.02 14.5-28.47 26.36c-1.17 0.89-2.32 1.8-3.57 2.56-3.23 1.97-5.39 1.4-7.3-1.88-2.49-4.29-4.77-8.7-7.45-12.86-5.61-8.7-10.53-17.87-17.27-25.82-1.1-1.28-2.29-2.49-3.35-3.8-0.99-1.22-2.03-2.45-2.74-3.83-1.72-3.39-0.07-6.14 3.74-6.24 3.16-0.08 6.32 0.17 9.47 0.07 14.58-0.45 28.33-3.97 40.67-11.89 8.11-5.2 15.08-11.79 20.88-19.52 0.87-1.16 1.55-2.45 2.56-4.09z"/>
</svg>