<svg version="1.2" xmlns="http://www.w3.org/2000/svg" viewBox="0 0 80 80" width="80" height="80">
	<style>
		.s0 { fill: #26224d } 
	</style>
	<g id="&lt;Group&gt;">
		<path id="&lt;Path&gt;" class="s0" d="m19.38 73.54c-1.52-1.47-1.21-3.24-0.74-4.78 1.91-6.17 4.75-11.92 8.28-17.32 0.31-0.47 0.72-0.89 1.16-1.23 1.55-1.2 3.19-0.53 3.36 1.45 0.08 0.86-0.08 1.84-0.45 2.61-2.56 5.39-5.15 10.77-7.87 16.08-0.75 1.45-1.85 2.82-3.74 3.19z"/>
		<path id="&lt;Path&gt;" class="s0" d="m71.84 15.17c-0.82 1.35-1.22 2.47-1.99 3.19q-6.62 6.2-13.41 12.21c-1.15 1.01-2.75 2.21-4.15 0.73-1.45-1.53 0.08-2.96 1.02-4.1 3.94-4.78 8.46-8.97 13.46-12.62 0.77-0.56 1.85-1.01 2.76-0.96 0.74 0.04 1.43 0.92 2.31 1.55z"/>
		<path id="&lt;Path&gt;" class="s0" d="m43.37 11.24c-0.34 3.35-0.63 6.7-1.06 10.03-0.15 1.21-0.42 2.49-1.01 3.52-0.43 0.74-1.43 1.51-2.24 1.58-1.2 0.11-1.63-1.07-1.62-2.14 0.01-3.25-0.03-6.52 0.22-9.76 0.22-3.01 0.76-6 1.2-9 0.22-1.57 0.47-3.25 2.32-3.71 1.11-0.28 1.87 1.16 1.97 3.74 0.07 1.9 0.01 3.81 0.01 5.72q0.11 0.01 0.21 0.02z"/>
		<path id="&lt;Path&gt;" class="s0" d="m42.05 77.66c-1.96-0.6-2.46-2-2.83-3.42-1.51-5.8-2.01-11.71-1.79-17.69q0.02-0.34 0.07-0.67c0.18-1.17 0.54-2.28 1.94-2.38 1.42-0.11 1.97 0.92 2.19 2.1 0.49 2.75 1.04 5.51 1.34 8.3 0.34 3.12 0.41 6.27 0.61 9.4 0.1 1.62-0.19 3.1-1.53 4.36z"/>
		<path id="&lt;Path&gt;" class="s0" d="m58.4 46.09c-0.45 0-0.97 0.14-1.33-0.04-0.65-0.31-1.69-0.79-1.71-1.24-0.02-0.72 0.58-1.51 1.05-2.18 0.23-0.32 0.76-0.44 1.17-0.63 5.21-2.34 10.74-3.18 16.38-3.35 2.64-0.09 4.24 0.73 4.11 1.96-0.2 1.99-1.99 2.35-3.46 2.65-5.37 1.11-10.78 2.05-16.17 3.06q-0.02-0.12-0.04-0.23z"/>
		<path id="&lt;Path&gt;" class="s0" d="m64.06 65.62c-0.8-0.31-1.65-0.52-2.37-0.94-4.23-2.43-7.64-5.81-10.79-9.47-0.65-0.75-1.17-1.68-1.48-2.61-0.49-1.49 0.7-2.7 2.24-2.27 0.83 0.24 1.63 0.73 2.35 1.24 3.96 2.84 7.26 6.3 9.85 10.43 0.66 1.06 1.23 2.14 0.2 3.62z"/>
		<path id="&lt;Path&gt;" class="s0" d="m1.13 43.11c1.3-0.54 2.54-1.35 3.89-1.57 4.32-0.7 8.67-1.22 13.01-1.73 0.99-0.12 2.05-0.06 3.01 0.17 0.55 0.14 1.27 0.72 1.38 1.21 0.11 0.5-0.3 1.37-0.75 1.67-0.81 0.55-1.8 0.92-2.76 1.17-4.5 1.14-9.08 1.63-13.71 1.33-1.35-0.09-2.67-0.69-4.01-1.06q-0.03-0.59-0.06-1.19z"/>
		<path id="&lt;Path&gt;" class="s0" d="m9.85 16.7c1.94 1.09 3.33 1.75 4.58 2.61q4.83 3.35 9.54 6.88c1.06 0.79 2.05 1.75 2.84 2.8 0.38 0.52 0.55 1.75 0.22 2.11-0.49 0.53-1.5 0.71-2.31 0.8-0.5 0.05-1.07-0.29-1.56-0.54-5.69-2.88-9.55-7.64-13.03-12.78-0.16-0.24-0.1-0.63-0.28-1.88z"/>
	</g>
</svg>