<svg version="1.2" xmlns="http://www.w3.org/2000/svg" viewBox="0 0 184 189" width="184" height="189">
	<style>
		.s0 { fill: #26224d } 
	</style>
	<path id="&lt;Compound Path&gt;" fill-rule="evenodd" class="s0" d="m20.94 49.02c-1.58 0.81-2.5 1.29-3.42 1.76q-0.15-0.13-0.29-0.27c1.59-1.84 3.08-3.79 4.81-5.49 4.97-4.9 10.26-9.49 15.02-14.58 7.77-8.31 16.29-15.61 26.57-20.56 5.46-2.62 11.2-4.67 16.92-6.7 2.75-0.98 5.75-0.94 8.71-0.41-0.1 0.25-0.17 0.56-0.23 0.56-6.54-0.04-12.27 2.66-17.97 5.34q-10.29 4.84-19.23 11.87c-0.77 0.6-1.44 1.32-2.4 2.21 1.62 0.7 2.41-0.26 3.28-0.75 6.59-3.68 13.12-7.46 19.76-11.06 4.37-2.36 8.98-4.3 13.94-4.98 4.1-0.56 8.26-0.65 12.41-0.84 2.47-0.11 4.97 0.18 7.42-0.03 6.24-0.54 12.39 0.08 18.44 1.43 9.89 2.2 18.58 6.92 26.13 13.57 16.66 14.67 26.2 33.25 29.54 55.08 2.6 16.98 1.41 33.68-4.32 49.94-5.35 15.14-14.17 27.83-27.24 37.37q-6.14 4.48-12.4 8.78c-12.2 8.4-25.6 13.5-40.42 14.92-20.31 1.93-38.9-2.97-55.89-13.96-9.51-6.16-16.2-14.85-20.97-25.09-1.61-3.45-3.41-6.86-5.52-10.02-5.77-8.62-8.88-18.11-10.12-28.33-2.32-19.15 3.33-36.24 13.17-52.3 1-1.64 2.13-3.19 3.15-4.81 0.37-0.61 0.58-1.32 1.15-2.65zm-4.51 58.49c-0.08 6.51 1.02 15.74 3.16 24.89 1.33 5.66 4.3 9.99 8.62 13.72 10.09 8.7 21.66 14.51 34.42 18.09 10.99 3.08 22.21 4.62 33.56 5.69 12.38 1.16 24.21-0.72 35.85-4.79 5.42-1.89 9.63-5.13 13.24-9.5 7.61-9.21 13.4-19.46 17.86-30.49 4.17-10.29 7.15-20.92 8.04-31.98 1.11-13.98-1.72-27.35-7.74-40-4.24-8.91-10.69-16.15-18.2-22.39-9.59-7.98-20.04-14.59-32.22-17.98-4.89-1.36-9.9-2.54-15-1.67-14.46 2.44-28.17 7.1-40.68 14.86-9.26 5.75-17.7 12.49-23.85 21.66-11.55 17.24-17.26 36.24-17.06 59.89zm97.37 67.91c-3.46 0.17-6.24 0.41-9.02 0.41-2.8-0.01-5.61-0.22-8.41-0.41q-4.21-0.3-8.4-0.74c-2.79-0.28-5.59-0.57-8.37-0.99-2.66-0.41-5.32-0.93-7.95-1.5q-4.13-0.88-8.2-1.99-4.07-1.1-8.06-2.48-3.99-1.37-7.86-3.06c-2.57-1.13-5.04-2.49-7.58-3.69-2.42-1.14-4.37-3.24-7.25-3.45 10.53 13.03 25.04 18.75 40.79 22.15 15.55 3.36 35.93-0.22 40.31-4.25zm-102.42-57.3c0-2.03 0.17-3.68-0.03-5.28-0.93-7.66-0.31-15.3 0.53-22.9 1.08-9.79 4.01-19.13 7.87-28.19 0.41-0.97 0.68-2 1.22-3.62-5.31 4.49-12.39 23.86-13.22 35.07-0.77 10.38 0.71 21.56 3.63 24.92z"/>
</svg>