<svg version="1.2" xmlns="http://www.w3.org/2000/svg" viewBox="0 0 84 132" width="84" height="132">
	<style>
		.s0 { fill: #26224d } 
	</style>
	<g id="&lt;Group&gt;">
		<path id="&lt;Compound Path&gt;" fill-rule="evenodd" class="s0" d="m50.62 45.79c2.06 0.3 3.57 0.75 5.08 0.71 8.18-0.22 16.09 1.76 24.11 2.8 2.9 0.38 3.85 2.19 2.68 4.87-0.62 1.42-1.51 2.78-2.5 3.99-4.99 6.1-10.1 12.1-15.08 18.21-7.18 8.81-14.26 17.71-21.42 26.55-4.89 6.03-9.84 12.02-14.78 18.01-0.57 0.69-1.14 1.47-1.88 1.92-0.69 0.42-1.98 0.9-2.35 0.58-0.62-0.54-0.84-1.65-1.02-2.57-0.1-0.5 0.22-1.08 0.35-1.63 2.98-12.6 6.38-25.07 11.05-37.17 1.12-2.93 1.85-6.02 2.59-9.07 0.58-2.39 0.05-2.91-2.41-3.32-3.77-0.63-7.54-1.22-11.26-2.05-3.65-0.81-4.81-2.21-4.61-5.92 0.35-6.39 0.66-12.82 1.57-19.15 1.46-10.23 3.39-20.4 5.14-30.59q0.29-1.66 0.71-3.29c1.28-5.04 2.99-6.48 8.28-6.71 3.37-0.14 6.76-0.1 10.14-0.09q10.98 0.02 21.97 0.08c6.32 0.03 7.28 1.5 4.65 7.2-0.66 1.43-1.49 2.78-2.29 4.14q-8.72 14.84-17.44 29.69c-0.39 0.66-0.64 1.39-1.28 2.81zm-21.18 66.63q0.38 0.23 0.76 0.46c0.58-0.46 1.27-0.82 1.73-1.38 3.24-3.9 6.53-7.77 9.6-11.8 4.17-5.46 8.03-11.16 12.24-16.59 6.77-8.72 13.72-17.3 20.57-25.96 0.78-1 1.4-2.12 2.15-3.27-0.8-0.45-1.16-0.79-1.57-0.87q-6.81-1.22-13.63-2.34c-3.33-0.54-6.72-0.8-10-1.55-3.42-0.77-4.28-2.41-3.17-5.69 0.91-2.65 1.96-5.29 3.26-7.77 4.63-8.77 9.4-17.45 14.08-26.19 0.49-0.9 0.78-1.91 1.39-3.43-1.9 0-3.11 0.02-4.33-0.01q-5.74-0.1-11.49-0.23-8.78-0.2-17.56-0.44c-1.7-0.04-2.46 0.79-2.6 2.41q-0.16 1.85-0.46 3.68c-2.57 15.65-5.19 31.29-7.71 46.95-0.91 5.65-0.82 5.7 4.9 6.42 3.46 0.44 6.93 0.75 10.4 1.15 3.05 0.35 3.9 1.39 3.65 4.44-0.05 0.56-0.11 1.13-0.27 1.66q-1.86 6.32-3.77 12.62c-2.43 7.96-4.89 15.92-7.31 23.89-0.38 1.25-0.57 2.56-0.86 3.84z"/>
		<path id="&lt;Path&gt;" class="s0" d="m41.25 126.62c-0.65-1.94 0.24-2.96 0.91-3.89 6.54-9.05 13.95-17.31 22.56-24.46 0.76-0.64 1.64-1.22 2.57-1.56 1.37-0.51 2.3 0.39 1.85 1.74-0.28 0.83-0.79 1.62-1.36 2.3-1.42 1.73-2.84 3.5-4.44 5.06-6.43 6.29-12.92 12.51-19.41 18.73-0.74 0.71-1.62 1.27-2.68 2.08z"/>
		<path id="&lt;Path&gt;" class="s0" d="m15.47 121.11c-0.4-1.36-0.98-2.46-1-3.57-0.22-11.13 0.03-22.25 1.32-33.32 0.11-0.92 0.59-1.8 1.07-3.21 1.4 1.92 1.69 3.51 1.66 5.16-0.2 10-0.39 19.99-0.7 29.98-0.06 1.68-0.08 3.6-2.35 4.96z"/>
		<path id="&lt;Path&gt;" class="s0" d="m3.44 92.95c1.96 7.42 3.74 14.89 3.76 22.67 0 1.23-0.41 2.46-0.65 3.77-2.01-0.26-2.5-1.45-2.84-2.61-0.47-1.61-0.91-3.27-1.05-4.93q-0.66-7.89-1.05-15.8c-0.05-1.02 0.42-2.07 0.65-3.11q0.59 0 1.18 0.01z"/>
		<path id="&lt;Path&gt;" class="s0" d="m65.44 118.95c-0.92 1.42-1.34 2.48-2.1 3.15-2.87 2.51-5.83 4.9-8.78 7.31-0.43 0.34-0.97 0.75-1.47 0.77-0.79 0.03-1.6-0.24-2.41-0.38 0.21-0.71 0.21-1.63 0.66-2.09 3.32-3.37 7-6.31 11.2-8.52 0.6-0.31 1.45-0.14 2.9-0.24z"/>
	</g>
</svg>