<svg version="1.2" xmlns="http://www.w3.org/2000/svg" viewBox="0 0 269 115" width="269" height="115">
	<title>logo</title>
	<style>
		.s0 { fill: #000000 } 
		.s1 { fill: #fefefe } 
	</style>
	<g id="surface1">
		<path class="s0" d="m36.1 103.3h-2.3l-0.3-0.3h-0.6l-0.9-0.9 0.3-0.3v-0.2l-0.3-0.3v-5.3l0.3-0.3v-1.5l0.3-0.3v-2.9l0.3-0.3v-1.2l0.3-0.3v-1.7l0.3-0.3v-0.9l0.3-0.3v-1.4l0.2-0.3v-1.2l0.3-0.3v-0.9l0.3-0.3v-0.8l0.3-0.3v-1.2l0.3-0.3v-1.2l0.3-0.3v-0.9l0.3-0.2v-1.5l0.3-0.3v-0.6l0.3-0.3v-0.9l0.3-0.3v-1.1l0.3-0.3v-0.9l0.3-0.3v-0.6l0.3-0.3v-0.8l0.3-0.3v-0.6l0.2-0.3v-0.9l0.3-0.3v-0.9l0.3-0.3v-0.8l0.3-0.3v-1.2l0.3-0.3v-0.9l0.3-0.3v-0.6l0.3-0.3v-0.5l0.3-0.3h-0.3l-0.3 0.3-0.3-0.3-0.3 0.3h-0.9l-0.2 0.3h-0.9l-0.3 0.2h-0.9l-0.3 0.3h-0.9l-0.3 0.3h-0.8l-0.3 0.3h-0.9l-0.3 0.3h-0.9l-0.3 0.3h-0.9l-0.2 0.3h-0.9l-0.3 0.3h-0.9l-0.3 0.3h-0.6l-0.3 0.3h-0.3l-0.3 0.3h-0.2l-0.3 0.3h-0.6l-0.3 0.3h-0.6l-0.3 0.3h-0.6l-0.3 0.3h-0.6l-0.3 0.2h-0.5l-0.3 0.3h-0.6v0.6l-0.3 0.3v0.6l-0.3 0.3v0.6l-0.3 0.3v0.6l-0.3 0.3v0.5l-0.3 0.3v0.6l-0.3 0.3v0.6l-0.3 0.3v0.6l-0.3 0.3v0.8l-0.3 0.3v0.9l-0.3 0.3v0.6l-0.2 0.3v1.2l-0.3 0.3v0.5l-0.3 0.3v1.2l-0.3 0.3v1.2l-0.3 0.3v0.8l-0.3 0.3v1.2l-0.3 0.3v1.2l-0.3 0.3v0.8l-0.3 0.3v0.9l-0.3 0.3v1.5l-0.3 0.3v1.4l-0.3 0.3v1.5l-0.3 0.3v3.5l-0.3 0.3v2l-0.5 0.6v0.3l-0.6 0.6h-0.3l-0.3 0.3h-0.3l-0.3 0.3h-0.9l-0.3-0.3h-0.3l-1.4-1.5v-0.6l-0.3-0.2v-4.4l0.3-0.3v-0.6l0.3-0.3v-1.5l0.3-0.3v-1.1l0.3-0.3v-1.2l0.2-0.3v-1.2l0.3-0.3v-1.4l0.3-0.3v-0.9l0.3-0.3v-1.2l0.3-0.3v-0.8l0.3-0.3v-0.9l0.3-0.3v-1.2l0.3-0.3v-0.8l0.3-0.3v-0.6l0.3-0.3v-1.2l0.3-0.3v-0.6l0.3-0.3v-0.8l0.3-0.3v-0.9l0.3-0.3v-1.2l0.2-0.3v-0.6l0.3-0.2v-0.6h-0.3l-0.2 0.3h-0.6l-0.3 0.3h-0.6l-0.3 0.2h-0.3l-0.3 0.3h-0.6l-0.3 0.3h-0.3l-0.3 0.3h-0.5l-0.3 0.3h-0.3l-0.3 0.3h-0.3l-0.3 0.3h-0.3l-0.3 0.3h-0.3l-0.3 0.3h-0.3l-0.3 0.3h-1.7l-0.3-0.3h-0.3l-0.6-0.6v-0.3l-0.6-0.6v-1.4l0.3-0.3v-0.6l1.8-1.8h0.3l0.3-0.3h0.2l0.3-0.3h0.6l0.3-0.3h0.3l0.3-0.2h0.3l0.3-0.3h0.3l0.3-0.3h0.3l0.3-0.3h0.3l0.3-0.3h0.5l0.3-0.3h0.3l0.3-0.3h0.3l0.3-0.3h0.3l0.3-0.3h0.6l0.3-0.3h0.3l0.3-0.3h0.2l0.3-0.3h0.3l0.3-0.3h0.6l0.3-0.3h0.3l0.3-0.3h0.3v-0.8l0.3-0.3v-0.6l0.3-0.3v-0.9l0.3-0.3v-0.9l0.3-0.2v-0.9l0.2-0.3v-0.9l0.3-0.3v-0.9l0.3-0.3v-0.5l0.3-0.3v-0.6l0.3-0.3v-0.6l0.3-0.3v-0.6l0.3-0.3v-0.9l0.3-0.2v-0.9l0.3-0.3v-0.6l0.3-0.3v-0.6l0.3-0.3v-0.6l0.3-0.3v-0.5l0.3-0.3v-0.6l0.3-0.3v-0.6l0.2-0.3v-0.3l0.3-0.3v-0.6l0.3-0.3v-0.5l0.3-0.3v-0.6l0.3-0.3v-0.3l0.3-0.3v-0.6l0.3-0.3v-0.3l0.3-0.3v-0.6l0.3-0.2v-0.6l0.3-0.3v-0.6l0.3-0.3v-0.6l0.3-0.3v-0.3l0.3-0.3v-0.6l0.3-0.2v-0.6l0.3-0.3v-0.3l0.2-0.3v-0.6l0.3-0.3v-0.3l0.3-0.3v-0.3l0.3-0.3v-0.5l0.3-0.3v-0.3l0.3-0.3v-0.3l0.3-0.3v-0.3l0.3-0.3v-0.3l0.3-0.3v-0.3l0.3-0.3v-0.6l0.3-0.3v-0.2l0.3-0.3v-0.6l0.3-0.3v-0.3l0.3-0.3v-0.6l0.2-0.3v-0.3l0.3-0.3v-0.6l0.3-0.2v-0.3l0.3-0.3v-0.3l0.3-0.3v-0.3l0.3-0.3v-0.3l1.5-1.5h2l1.2 1.2v0.3l0.3 0.3v0.9l0.3 0.3v0.8l-0.3 0.3v0.9l-0.3 0.3v0.3l-0.3 0.3v0.6l-0.3 0.3v0.3l-0.3 0.3v0.3l-0.3 0.2v0.3l-0.3 0.3v0.3l-0.3 0.3v0.3l-0.3 0.3v0.3l-0.2 0.3v0.6l-0.3 0.3v0.3l-0.3 0.3v0.3l-0.3 0.2v0.6l-0.3 0.3v0.3l-0.3 0.3v0.6l-0.3 0.3v0.3l-0.3 0.3v0.6l-0.3 0.3v0.2l-0.3 0.3v0.6l-0.3 0.3v0.6l-0.3 0.3v0.3l-0.3 0.3v0.6l-0.3 0.3v0.5l-0.2 0.3v0.3l-0.3 0.3v0.6l-0.3 0.3v0.6l-0.3 0.3v0.3l-0.3 0.3v0.6l-0.3 0.2v0.6l-0.3 0.3v0.6l-0.3 0.3v0.6l-0.3 0.3v0.3l-0.3 0.3v0.6l-0.3 0.3v0.5l-0.3 0.3v0.9l-0.3 0.3v0.3l-0.3 0.3v0.6l-0.2 0.3v0.8l-0.3 0.3v0.6l-0.3 0.3v0.6l-0.3 0.3v0.6l-0.3 0.3v0.6l-0.3 0.3v0.5l-0.3 0.3v0.6l-0.3 0.3v0.9l-0.3 0.3v0.6l-0.3 0.3v0.5l-0.3 0.3v0.9l-0.3 0.3v0.6l0.3-0.3h0.6l0.3-0.3h0.6l0.3-0.3h0.6l0.3-0.3h0.5l0.3-0.3h0.9l0.3-0.3h0.6l0.3-0.3h0.9l0.3-0.2h0.8l0.3-0.3h0.6l0.3-0.3h0.9l0.3-0.3h1.2l0.2-0.3h0.9l0.3-0.3h1.2l0.3-0.3h0.6l0.3-0.3h1.4l0.3-0.3h0.9l0.3-0.3h1.5l0.2-0.3h0.3v-0.9l0.3-0.2v-0.6l0.3-0.3v-0.9l0.3-0.3v-0.6l0.3-0.3v-0.6l0.3-0.3v-0.5l0.3-0.3v-0.6l0.3-0.3v-0.6l0.3-0.3v-0.6l0.3-0.3v-0.3l0.3-0.3v-0.8l0.3-0.3v-0.3l0.3-0.3v-0.9l0.3-0.3v-0.3l0.2-0.3v-0.6l0.3-0.3v-0.5l0.3-0.3v-0.6l0.3-0.3v-0.6l0.3-0.3v-0.3l0.3-0.3v-0.6l0.3-0.3v-0.2l0.3-0.3v-0.6l0.3-0.3v-0.3l0.3-0.3v-0.6l0.3-0.3v-0.6l0.3-0.3v-0.5l0.3-0.3v-0.3l0.3-0.3v-0.6l0.2-0.3v-0.6l0.3-0.3v-0.3l0.3-0.3v-0.6l0.3-0.2v-0.3l0.3-0.3v-0.6l0.3-0.3v-0.3l0.3-0.3v-0.6l0.3-0.3v-0.6l0.3-0.3v-0.3l0.3-0.2v-0.3l0.3-0.3v-0.6l0.3-0.3v-0.3l0.3-0.3v-0.6l0.3-0.3v-0.3l0.2-0.3v-0.3l0.3-0.2v-0.3l0.3-0.3v-0.3l0.3-0.3v-0.3l0.3-0.3v-0.3l0.3-0.3v-0.3l0.3-0.3v-0.6l0.6-0.5v-0.3l0.3-0.3v-0.3l0.3-0.3v-0.3l0.3-0.3v-0.3l0.3-0.3v-0.3l0.3-0.3v-0.3l0.2-0.3v-0.3l0.3-0.2v-0.3l0.3-0.3v-0.3l0.3-0.3v-0.3l0.3-0.3v-0.3l0.3-0.3v-0.3l0.3-0.3v-0.3l0.3-0.3v-0.3l0.3-0.2v-0.3l0.3-0.3v-0.3l0.3-0.3v-0.3l0.6-0.6v-0.3l0.6-0.6v-0.3l0.2-0.3h0.3l0.3-0.3h0.9l0.3-0.3 0.3 0.3h0.3l0.3 0.3h0.3l1.1 1.2v0.6l0.3 0.3v0.9l-0.3 0.3v0.3l-0.2 0.2v0.3l-0.3 0.3v0.3l-0.3 0.3v0.3l-0.3 0.3v0.3l-0.3 0.3v0.3l-0.3 0.3v0.6l-0.6 0.5v0.3l-0.3 0.3v0.3l-0.3 0.3v0.3l-0.3 0.3v0.3l-0.3 0.3v0.6l-0.3 0.3v0.3l-0.3 0.3v0.2l-0.2 0.3v0.6l-0.3 0.3v0.3l-0.6 0.6v0.3l-0.3 0.3v0.3l-0.3 0.3v0.3l-0.3 0.3v0.2l-0.3 0.3v0.3l-0.3 0.3v0.3l-0.3 0.3v0.3l-0.3 0.3v0.6l-0.3 0.3v0.6l-0.3 0.3v0.2l-0.3 0.3v0.6l-0.3 0.3v0.3l-0.2 0.3v0.3l-0.3 0.3v0.3l-0.3 0.3v0.6l-0.3 0.3v0.3l-0.3 0.2v0.6l-0.3 0.3v0.3l-0.3 0.3v0.3l-0.3 0.3v0.6l-0.3 0.3v0.3l-0.3 0.3v0.3l-0.3 0.2v0.6l-0.3 0.3v0.6l-0.3 0.3v0.3l-0.3 0.3v0.6l-0.2 0.3v0.6l-0.3 0.2v0.3l-0.3 0.3v0.6l-0.3 0.3v0.6l-0.3 0.3v0.3l-0.3 0.3v0.6l-0.3 0.3v0.2l-0.3 0.3v0.6l-0.3 0.3v0.6l-0.3 0.3v0.6l-0.3 0.3v0.6l-0.3 0.3v0.3l-0.3 0.2v0.6l-0.3 0.3v0.6l-0.2 0.3v0.6l-0.3 0.3v0.9l-0.3 0.3v0.2l-0.3 0.3v0.9l-0.3 0.3v0.3l-0.3 0.3v0.6l-0.3 0.3v0.6l-0.3 0.3v0.2h0.6l0.3-0.2h2.9l0.3-0.3h3.2l0.3 0.3h0.9l1.2 1.1v1.8l-0.3 0.3v0.3l-0.3 0.3v0.3l-0.9 0.8h-0.3l-0.3 0.3h-1.2l-0.2 0.3h-0.9l-0.3 0.3h-3.2l-0.3 0.3h-2.4l-0.3 0.3h-0.8v0.9l-0.3 0.3v0.6l-0.3 0.2v0.9l-0.3 0.3v0.9l-0.3 0.3v0.6l-0.3 0.3v0.9l-0.3 0.2v0.6l-0.3 0.3v0.6l-0.3 0.3v0.6l-0.3 0.3v1.2l-0.3 0.2v1.2l-0.3 0.3v1.2l-0.3 0.3v0.6l-0.3 0.3v0.8l-0.3 0.3v0.6l-0.2 0.3v0.9l-0.3 0.3v0.6l-0.3 0.3v1.1l-0.3 0.3v0.9l-0.3 0.3v1.5l-0.3 0.3v0.8l-0.3 0.3v1.2l-0.3 0.3v0.9l-0.3 0.3v1.1l-0.3 0.3v0.9l-0.3 0.3v1.5l-0.3 0.3v0.8l-0.3 0.3v1.8l-0.3 0.3 0.3 0.3v0.6l-0.3 0.2v6.5l-0.2 0.3v1.7l-0.3 0.3h-0.3z"/>
		<path class="s0" d="m257 34.8h-1.5l-0.3-0.3h-0.8l-0.3-0.3h-0.6l-0.3-0.3h-0.3l-0.3-0.3h-0.3l-2-2.1v-0.3l-0.3-0.3v-0.2l-0.3-0.3v-0.3l-0.3-0.3v-0.9l-0.3-0.3v-2l0.3-0.3v-1.5l0.3-0.3v-0.6l0.3-0.3v-0.3l0.3-0.3v-0.3l2.3-2.3h0.3l0.3-0.3h0.3l0.3-0.3h0.3l0.3-0.3h1.7l0.3-0.3h0.6l0.3 0.3h1.2l0.3 0.3h0.2l0.3 0.3h0.3l0.3 0.3h0.3l2.4 2.3v0.3l0.3 0.3v0.3l0.2 0.3v0.3l0.3 0.3v0.9l0.3 0.3v2.9l-0.3 0.3v0.9l-0.3 0.3v0.3l-0.2 0.3v0.2l-0.3 0.3v0.3l-2.1 2.1h-0.3l-0.3 0.3h-0.6l-0.3 0.3h-0.2l-0.3 0.3h-1.2z"/>
		<path class="s0" d="m56.9 87.5h-0.6l-0.3-0.3h-0.9l-0.3-0.3h-0.2l-2.1-2v-0.3l-0.3-0.3v-0.6l-0.3-0.3v-0.6l-0.3-0.3v-1.5l0.3-0.3v-1.1l0.3-0.3v-0.9l0.3-0.3v-1.2l0.3-0.3v-0.8l0.3-0.3v-0.6l0.3-0.3v-0.6l0.3-0.3v-0.6l0.3-0.3v-0.5l0.3-0.3v-0.6l0.3-0.3v-0.6l0.2-0.3v-0.6l0.3-0.3v-0.3l0.3-0.3v-0.3l0.3-0.2v-0.3l0.3-0.3v-0.3l0.3-0.3v-0.6l0.3-0.3v-0.3l0.3-0.3v-0.3l0.6-0.6v-0.3l0.6-0.5v-0.3l0.6-0.6v-0.3l0.2-0.3v-0.3l0.6-0.6v-0.3l0.6-0.6v-0.3l0.9-0.8v-0.3l0.6-0.6v-0.3l0.6-0.6v-0.3l1.1-1.2v-0.3l0.9-0.8v-0.3l7.6-7.6h0.3l0.9-0.9h0.3l0.6-0.6h0.3l0.3-0.3h0.3l0.3-0.3h0.3l0.2-0.3h3.3l0.3 0.3h0.3l1.1 1.2v0.3l0.3 0.3v0.3l0.3 0.3v0.8l0.3 0.3 0.3-0.3h1.2l0.3 0.3h0.3l0.3 0.3h0.2l0.3 0.3v0.3l0.6 0.6v2.3l-0.3 0.3v0.3l-0.3 0.3v0.3l-0.3 0.3v0.3l-0.2 0.3v0.3l-0.6 0.6v0.3l-0.3 0.2v0.3l-0.3 0.3v0.6l-0.3 0.3v0.6l-0.3 0.3v0.3l-0.3 0.3v0.6l-0.3 0.3v0.2l-0.3 0.3v0.6l-0.3 0.3v0.9l-0.3 0.3v0.3l-0.3 0.3v0.6l-0.3 0.3v0.5l-0.2 0.3v0.3l-0.3 0.3v0.6l-0.3 0.3v0.9l-0.3 0.3v0.6l-0.3 0.3v0.5l-0.3 0.3v1.2l-0.3 0.3v1.8l-0.3 0.2v4.1l-0.3 0.3 0.3 0.3v0.9l0.3 0.3v0.3l0.3-0.3h0.3l0.3-0.3h0.3l2.3-2.3v-0.3l0.9-0.9v-0.3l0.6-0.6v-0.3l0.6-0.6v-0.3l0.8-0.8v-0.3l0.6-0.6v-0.3l0.3-0.3v-0.3l0.6-0.6v-0.3l0.6-0.6v-0.2l0.6-0.6v-0.3l0.6-0.6v-0.3l0.3-0.3v-0.3l0.5-0.6v-0.3l0.3-0.3v-0.3l0.3-0.2v-0.3l0.6-0.6v-0.3l0.6-0.6v-0.3l0.3-0.3v-0.3l0.3-0.3v-0.3l0.6-0.6v-0.3l0.3-0.2v-0.3l0.5-0.6v-0.3l0.3-0.3v-0.3l0.3-0.3v-0.6l0.3-0.3v-0.3l0.3-0.3v-0.3l0.3-0.2v-0.3l0.3-0.3v-0.6l0.3-0.3v-0.6l0.3-0.3v-0.3l0.3-0.3v-0.6l0.3-0.3v-0.5l0.3-0.3v-0.6l0.3-0.3v-0.3l0.3-0.3v-0.6l0.2-0.3v-0.3l1.2-1.1h0.3l0.3-0.3h2.1l1.7 1.7v0.6l0.3 0.3v0.6l-0.3 0.3v0.6l-0.3 0.3v0.5l-0.3 0.3v0.6l-0.3 0.3v0.3l-0.3 0.3v0.3l-0.2 0.3v0.6l-0.3 0.3v0.6l-0.3 0.2v0.6l-0.3 0.3v0.6l-0.3 0.3v0.9l-0.3 0.3v0.9l-0.3 0.2v0.6l-0.3 0.3v0.6l-0.3 0.3v0.9l-0.3 0.3v0.9l-0.3 0.3v1.1l-0.3 0.3v1.2l-0.3 0.3v0.9l-0.3 0.3v1.7l-0.3 0.3v2.9l-0.2 0.3v1.8h0.2l0.9-0.9v-0.3l0.9-0.9v-0.3l0.9-0.8v-0.3l0.6-0.6v-0.3l0.9-0.9v-0.3l0.5-0.6v-0.3l0.6-0.5v-0.3l0.6-0.6v-0.3l0.3-0.3v-0.3l0.3-0.3v-0.3l0.3-0.3v-0.3l0.3-0.3v-0.3l0.3-0.3v-0.2l0.6-0.6v-0.3l0.3-0.3v-0.3l0.2-0.3v-0.3l0.3-0.3v-0.3l0.3-0.3v-0.3l0.3-0.3v-0.3l0.3-0.3v-0.2l0.3-0.3v-0.3l0.3-0.3v-0.3l0.3-0.3v-0.3l0.3-0.3v-0.3l0.3-0.3v-0.6l0.3-0.3v-0.3l0.3-0.2v-0.3l0.3-0.3v-0.3l0.3-0.3v-0.3l0.2-0.3v-0.6l0.3-0.3v-0.3l0.3-0.3v-0.3l0.3-0.3v-0.2l0.3-0.3v-0.3l0.3-0.3v-0.3l0.3-0.3v-0.3l0.3-0.3v-0.6l0.3-0.3v-0.3l0.3-0.3v-0.3l0.3-0.2v-0.6l1.7-1.8h0.6l0.3-0.3h0.9l0.3 0.3h0.3l0.3 0.3h0.3l0.3 0.3v0.3l0.5 0.6v0.6l0.3 0.3v0.2l-0.3 0.3v1.8l-0.2 0.3v0.9l-0.3 0.3v0.5l-0.3 0.3v0.6l-0.3 0.3v0.6l-0.3 0.3v0.9l-0.3 0.3v0.6l-0.3 0.2v0.3l-0.3 0.3v0.6l-0.3 0.3v0.3l-0.3 0.3v0.6l-0.3 0.3v0.6l-0.3 0.3v0.5l-0.3 0.3v0.9l-0.3 0.3v0.9l-0.3 0.3v0.9l-0.2 0.3v0.8l-0.3 0.3v0.9l-0.3 0.3 0.3 0.3-0.3 0.3v1.2l-0.3 0.2v1.8l-0.3 0.3v0.3l0.3 0.3v0.3l-0.3 0.3v2.6h0.6l0.3-0.3h0.3l0.8-0.9h0.3v-0.3l1.8-1.7v-0.3l2-2.1v-0.3l0.9-0.8v-0.3l0.9-0.9v-0.3l0.9-0.9v-0.3l0.6-0.6v-0.2l0.5-0.6v-0.3l0.3-0.3v-0.3l0.6-0.6v-0.3l0.6-0.6v-0.3l0.3-0.3v-0.3l0.3-0.3v-0.2l0.3-0.3v-0.3l0.6-0.6v-0.3l0.3-0.3v-0.3l0.3-0.3v-0.3l0.5-0.6v-0.3l0.3-0.3v-0.2l0.3-0.3v-0.3l0.6-0.6v-0.3l0.3-0.3v-0.3l0.3-0.3v-0.3l0.3-0.3v-0.3l0.3-0.3v-0.3l0.3-0.2v-0.3l0.3-0.3v-0.3l0.3-0.3v-0.6l0.3-0.3v-0.3l0.3-0.3v-0.3l0.2-0.3v-0.6l0.3-0.2v-0.3l1.8-1.8h0.6l0.3-0.3h0.6l0.3 0.3h0.5l0.3 0.3h0.3l0.6 0.6v0.3l0.3 0.3v2.3l-0.3 0.3v0.3l-0.3 0.3v0.6l-0.3 0.3v0.3l-0.3 0.3v0.5l-0.3 0.3v0.3l-0.3 0.3v0.6l-0.2 0.3v0.3l-0.3 0.3v0.3l-0.3 0.3v0.6l-0.3 0.2v0.6l-0.3 0.3v0.3l-0.3 0.3v0.9l-0.3 0.3v0.6l-0.3 0.3v0.5l-0.3 0.3v0.6l-0.3 0.3v0.3l-0.3 0.3v0.6l-0.3 0.3v0.9l-0.3 0.3v0.5l-0.3 0.3v0.9l-0.2 0.3v1.2l-0.3 0.3v1.1l-0.3 0.3v4.4l0.3 0.3v0.9h0.3l2.6-2.6v-0.3l1.7-1.8v-0.3l0.9-0.9v-0.2l0.9-0.9v-0.3l0.3-0.3v-0.3l0.6-0.6v-0.3l0.6-0.6v-0.3l0.6-0.5v-0.3l0.5-0.6v-0.3l0.6-0.6v-0.3l0.3-0.3v-0.3l0.3-0.3v-0.3l0.3-0.3v-0.3l0.3-0.3v-0.2l0.3-0.3v-0.3l0.3-0.3v-0.3l0.6-0.6v-0.3l0.3-0.3v-0.3l0.3-0.3v-0.3l0.5-0.6v-0.2l0.3-0.3v-0.3l0.3-0.3v-0.3l0.3-0.3v-0.3l0.3-0.3v-0.3l0.3-0.3v-0.6l0.3-0.3v-0.3l0.3-0.2v-0.3l0.3-0.3v-0.6l0.6-0.6v-0.3l0.3-0.3v-0.3l0.3-0.3v-0.3l0.3-0.3v-0.3l0.2-0.2v-0.3l0.3-0.3v-0.3l1.2-1.2h0.3l0.3-0.3h1.8l1.7 1.8v2.6l-0.3 0.3v0.6l-0.3 0.3v0.6l-0.3 0.3v0.2l-0.3 0.3v0.3l-0.3 0.3v0.6l-0.2 0.3v0.6l-0.3 0.3v0.6l-0.3 0.3v0.5l-0.3 0.3v0.3l-0.3 0.3v0.3l-0.3 0.3v0.3l-0.3 0.3v0.3l-0.3 0.3v0.6l-0.3 0.3v0.5l-0.3 0.3v0.6l-0.3 0.3v1.2l-0.3 0.3v0.6l-0.3 0.3v1.1l-0.3 0.3v1.5l-0.2 0.3v0.9l-0.3 0.3v6.4l0.3-0.3h0.2l0.3-0.3h0.3l3.5-3.5v-0.3l1.2-1.2v-0.3l0.9-0.8v-0.3l0.9-0.9v-0.3l1.2-1.2v-0.3l0.5-0.5v-0.3l0.3-0.3v-0.9l0.3-0.3v-0.6l0.3-0.3v-0.6l0.3-0.3v-0.6l0.3-0.2v-0.6l0.3-0.3v-0.6l0.3-0.3v-0.9l0.3-0.3v-0.3l0.3-0.3v-0.8l0.3-0.3v-0.6l0.3-0.3v-0.6l0.3-0.3v-0.3l0.2-0.3v-0.6l0.3-0.3v-0.5l0.3-0.3v-0.6l0.3-0.3v-0.6l0.3-0.3v-0.6l0.3-0.3v-0.6l0.6-0.5v-0.3l1.5-1.5h1.7l0.3 0.3h0.3l1.2 1.2v0.3l0.3 0.3v2l-0.3 0.3v0.3l-0.3 0.3v0.6l-0.3 0.3v0.3l-0.3 0.2v0.6l-0.3 0.3v0.3l-0.3 0.3v0.3l-0.3 0.3v0.6l-0.3 0.3v0.3l-0.3 0.3v0.5l-0.3 0.3v0.3l-0.3 0.3v0.3l-0.2 0.3v0.6l-0.3 0.3v0.6l-0.3 0.3v0.3l-0.3 0.3v0.8l-0.3 0.3v0.6l-0.3 0.3v0.6l-0.3 0.3v0.9l-0.3 0.3v0.5l-0.3 0.3v0.6l-0.3 0.3v0.9l-0.3 0.3 0.3 0.3-0.3 0.3v1.1l-0.3 0.3v3.3l0.3-0.3h0.3l0.9-0.9h0.3l0.6-0.6v-0.3l1.4-1.5v-0.2l0.9-0.9v-0.3l0.6-0.6v-0.3l0.6-0.6v-0.3l0.3-0.3v-0.3l0.3-0.3v-0.2l0.6-0.6v-0.3l0.3-0.3v-0.3l0.2-0.3v-0.6l0.6-0.6v-0.3l0.3-0.3v-0.6l0.3-0.2v-0.3l0.3-0.3v-0.3l0.3-0.3v-0.3l0.6-0.6v-0.3l0.3-0.3v-0.3l0.3-0.3v-0.3l0.3-0.3v-0.2l0.3-0.3v-0.3l0.3-0.3v-0.3l0.2-0.3v-0.3l0.3-0.3v-0.3l0.3-0.3v-0.3l0.3-0.3v-0.3l0.3-0.3v-0.2l0.3-0.3v-0.3l0.3-0.3v-0.3l0.6-0.6v-0.3l0.3-0.3v-0.3l0.3-0.3v-0.3l0.6-0.6v-0.2l0.3-0.3v-0.3l0.5-0.6v-0.3l0.6-0.6h0.3l0.3-0.3h1.8l0.3 0.3h0.3l0.8 0.9v0.3l0.3 0.3v2l-0.3 0.3v1.2l-0.3 0.3v0.3l-0.2 0.3v0.5l-0.3 0.3v0.3l-0.3 0.3v0.6l-0.6 0.6v0.3l-0.3 0.3v0.6l-0.3 0.3v0.3l-0.3 0.2v0.3l-0.3 0.3v0.6l-0.3 0.3v0.3l-0.3 0.3v0.6l-0.3 0.3v0.6l-0.3 0.3v0.8l-0.3 0.3v0.6l-0.2 0.3v0.9l-0.3 0.3v0.9l-0.3 0.3v0.8l-0.3 0.3v1.5l-0.3 0.3v2.3l-0.3 0.3v2.7h0.3l0.6-0.6h0.3l0.5-0.6h0.3l2.1-2.1h0.3l0.9-0.8v-0.3l1.4-1.5v-0.3l1.5-1.5v-0.3l0.6-0.5v-0.3l0.9-0.9v-0.3l1.7-1.8v-0.3l1.5-1.4v-0.3l0.6-0.6v-0.3l0.3-0.3v-0.6l0.2-0.3v-0.6l0.3-0.2v-0.3l0.3-0.3v-0.6l0.3-0.3v-0.3l0.3-0.3v-0.6l0.3-0.3v-0.6l0.3-0.3v-0.2l0.3-0.3v-0.6l0.3-0.3v-0.6l0.3-0.3v-0.3l0.3-0.3v-0.6l0.3-0.3v-0.5l0.3-0.3v-0.6l0.3-0.3v-0.6l0.3-0.3v-0.9l0.5-0.6v-0.3l0.9-0.8h0.3l0.3-0.3h1.8l1.4 1.4v0.3l0.3 0.3v1.2l0.3 0.3-0.3 0.3v0.6l-0.3 0.3v0.5l-0.6 0.6v0.3l-0.3 0.3v0.3l-0.2 0.3v0.3l-0.3 0.3v0.3l-0.3 0.3v0.6l-0.3 0.3v0.2l-0.3 0.3v0.6l-0.3 0.3v0.6l-0.3 0.3v0.3l-0.3 0.3v0.6l-0.3 0.3v0.5l-0.3 0.3v0.3l-0.3 0.3v0.9l-0.3 0.3v0.6l-0.3 0.3 0.3-0.3v-0.3l0.3-0.3v-0.3l0.6-0.6v-0.3l0.6-0.6v-0.3l0.6-0.5v-0.3l0.3-0.3v-0.3l0.3-0.3v-0.3l0.6-0.6v-0.3l0.5-0.6v-0.3l0.9-0.8v-0.3l1.5-1.5v-0.3l1.4-1.5v-0.2l0.3-0.3h0.3v-0.3l0.3-0.3h0.3l2.4-2.4h0.3l0.8-0.9h0.3l0.3-0.2h0.3l0.3-0.3h0.3l0.3-0.3h0.3l0.3-0.3h1.1l0.3 0.3h0.3l0.3 0.3h0.3l0.9 0.8v0.3l0.3 0.3v0.3l0.3 0.3v0.6l0.3 0.3v1.2l-0.3 0.3v1.4l-0.3 0.3v0.9l-0.3 0.3v0.6l-0.3 0.3v1.4l-0.3 0.3v0.9l-0.3 0.3v1.2l-0.3 0.3v1.4l-0.3 0.3v1.2l-0.3 0.3v0.6-0.3l1.2-1.2v-0.3l0.6-0.6v-0.3l0.6-0.6v-0.2l0.9-0.9v-0.3l0.8-0.9v-0.3l2.1-2v-0.3l6.1-6.2h0.3l0.6-0.6h0.3l0.3-0.3h0.3l0.3-0.3h0.9l0.3-0.3 0.3 0.3h0.5l0.6 0.6h0.3l0.3 0.3v0.3l0.3 0.3v0.3l0.3 0.3v3.5l-0.3 0.3v1.8l-0.3 0.3v0.8l-0.3 0.3v0.6l-0.3 0.3v0.6l-0.3 0.3v0.9l-0.3 0.3v1.1l-0.2 0.3v0.9l-0.3 0.3v0.6l-0.3 0.3v0.8l-0.3 0.3v0.9l-0.3 0.3v0.6l-0.3 0.3v0.9l-0.3 0.3v6.4l0.3-0.3h0.3l0.3-0.3h0.3l0.3-0.3h0.3l0.5-0.6h0.3l0.6-0.5h0.3l4.7-4.7v-0.3l1.5-1.5v-0.3l1.1-1.2v-0.2l0.9-0.9v-0.3l1.2-1.2v-0.3l0.9-0.9v-0.3l0.8-0.8v-0.3l0.6-0.6v-0.3l0.6-0.6v-0.3l0.3-0.3v-0.3l0.3-0.3v-0.3l0.6-0.5v-0.3l0.3-0.3v-0.3l0.3-0.3v-0.3l0.3-0.3v-0.3l0.3-0.3v-0.3l0.3-0.3v-0.3l0.2-0.3v-0.2l0.3-0.3v-0.3l0.3-0.3v-0.3l0.3-0.3v-0.3l0.3-0.3v-0.3l0.3-0.3v-0.3l0.3-0.3v-0.3l1.5-1.4h0.3l0.3-0.3h1.1l0.3 0.3h0.3l1.2 1.1v0.3l0.3 0.3v1.5l-0.3 0.3v0.9l-0.3 0.3v0.3l-0.3 0.2v0.3l-0.3 0.3v0.3l-0.3 0.3v0.3l-0.3 0.3v0.3l-0.3 0.3v0.3l-0.3 0.3v0.3l-0.3 0.3v0.3l-0.3 0.2v0.3l-0.2 0.3v0.3l-0.3 0.3v0.3l-0.3 0.3v0.3l-0.3 0.3v0.6l-0.3 0.3v0.6l-0.3 0.2v0.6l-0.3 0.3v0.6l-0.3 0.3v0.3l-0.3 0.3v0.9l-0.3 0.3v0.5l-0.3 0.3v0.6l-0.3 0.3v0.9l-0.3 0.3v0.6l-0.3 0.3v0.9l-0.2 0.2v1.2l-0.3 0.3v1.8l-0.3 0.3v0.3l0.3 0.2v3l0.3 0.3v0.8l0.2 0.3v0.6l0.3 0.3h1.8l0.3-0.3h1.2l0.3-0.3h0.2l0.3-0.3h0.6l0.3-0.3h0.6l0.3-0.2h0.3l0.3-0.3h0.3l0.6-0.6h0.3l0.3-0.3h0.2l0.3-0.3h0.3l0.6-0.6h0.3l0.6-0.6h0.3l0.6-0.6h0.3l1.7-1.7h0.3l1.2-1.2h0.3l1.4-1.5h0.3l2.7-2.6h0.3l1.1-1.2h0.3l0.9-0.9h0.3l0.3-0.2h0.3l0.3-0.3h0.9l0.6 0.5h0.2l0.6 0.6v0.3l0.3 0.3v0.9l-0.3 0.3v0.3l-0.3 0.3v0.6l-0.3 0.3v0.3l-0.2 0.2v0.3l-1.8 1.8h-0.3l-0.9 0.9h-0.3l-2 2h-0.3l-1.2 1.2h-0.3l-1.7 1.8h-0.3l-1.2 1.1h-0.3l-0.6 0.6h-0.3l-0.6 0.6h-0.3l-0.8 0.9h-0.3l-0.3 0.3h-0.3l-0.6 0.6h-0.3l-0.6 0.5h-0.3l-0.3 0.3h-0.3l-0.2 0.3h-0.3l-0.3 0.3h-0.3l-0.3 0.3h-0.3l-0.3 0.3h-0.3l-0.3 0.3h-0.3l-0.3 0.3h-0.3l-0.3 0.3h-1.4l-0.3 0.3h-3.5l-0.3-0.3h-0.6l-0.3-0.3h-0.3l-0.3-0.3h-0.3l-0.6-0.6h-0.3l-1.1-1.2v-0.3l-0.9-0.8v-0.6l-0.3-0.3v-0.6l-0.3-0.3v-1.5l-0.3-0.2v-5.9l0.3-0.3v-0.3l-1.8 1.8v0.3l-2.9 2.9v0.3l-0.3 0.3h-0.3l-2.3 2.3h-0.3l-0.3 0.3h-0.3l-0.6 0.6h-0.6l-0.6 0.6h-0.5l-0.3 0.3h-0.3l-0.3 0.3h-0.6l-0.3 0.3h-1.5l-0.3-0.3h-0.3l-0.2-0.3h-0.6l-2.1-2.1v-0.3l-0.3-0.3v-0.5l-0.3-0.3v-0.9l-0.3-0.3v-5.6l0.3-0.3v-2l0.3-0.3v-0.9l0.3-0.3v-0.3l0.3-0.3v-0.6l0.3-0.3v-0.5l0.3-0.3v-0.9l0.3-0.3v-0.9l0.3-0.3v-0.3l0.3-0.3v-0.8l0.3-0.3v-0.6l0.3-0.3v-0.6l0.3-0.3v-0.9l0.2-0.3v-0.3l-3.8 3.9v0.2l-1.7 1.8v0.3l-0.9 0.9v0.3l-0.6 0.6v0.2l-0.6 0.6v0.3l-0.8 0.9v0.3l-0.6 0.6v0.3l-0.9 0.9v0.3l-0.6 0.5v0.3l-0.6 0.6v0.3l-0.3 0.3v0.3l-0.9 0.9v0.3l-0.3 0.3v0.3l-0.5 0.5v0.3l-0.3 0.3v0.3l-0.6 0.6v0.3l-0.3 0.3v0.3l-0.6 0.6v0.3l-0.3 0.3v0.2l-0.3 0.3v0.3l-0.3 0.3v0.3l-0.9 0.9h-0.5l-0.3 0.3h-0.3l-0.3-0.3h-0.6l-0.3-0.3h-0.3l-0.9-0.9v-0.3l-0.3-0.3v-0.3l-0.3-0.2v-2.1l0.3-0.3v-1.2l0.3-0.3v-0.5l0.3-0.3v-0.9l0.3-0.3v-0.6l0.3-0.3v-0.9l0.3-0.3v-0.8l0.3-0.3v-0.9l0.3-0.3v-0.9l0.3-0.3v-1.1l0.3-0.3v-1.2l0.3-0.3v-0.6l0.3-0.3v-0.9l0.3-0.3v-0.8l0.2-0.3v-1.2l0.3-0.3v-0.6l0.3-0.3v-0.6l0.3-0.2v-1.2l0.3-0.3v-0.6l0.3-0.3v-0.3l-3.2 3.2v0.3l-1.8 1.8v0.3l-0.8 0.9v0.3l-0.6 0.5v0.3l-0.3 0.3v0.3l-0.9 0.9v0.3l-0.6 0.6v0.3l-0.6 0.6v0.2l-0.9 0.9v0.3l-0.2 0.3v0.3l-0.6 0.6v0.3l-0.6 0.6v0.3l-0.3 0.3v0.3l-0.3 0.2v0.3l-0.3 0.3v0.3l-0.6 0.6v0.3l-0.3 0.3v0.3l-0.3 0.3v0.3l-0.6 0.6v0.3l-0.2 0.2v0.3l-0.3 0.3v0.3l-0.6 0.6v0.3l-0.3 0.3v0.3l-0.3 0.3v0.3l-0.3 0.3v0.3l-0.6 0.5v0.6l-0.3 0.3v0.3l-0.3 0.3v0.3l-0.3 0.3v0.3l-0.3 0.3v0.3l-0.6 0.6v0.3l-1.4 1.4h-1.5l-0.6-0.6h-0.3l-0.8-0.8v-0.3l-0.3-0.3v-2.4l0.3-0.3v-1.4l0.3-0.3v-0.3l-0.3 0.3v0.3l-3.6 3.5h-0.2l-0.9 0.9h-0.3l-0.6 0.5h-0.3l-0.6 0.6h-0.3l-0.3 0.3h-0.3l-0.3 0.3h-0.2l-0.3 0.3h-0.6l-0.3 0.3h-1.8l-0.3-0.3h-0.6l-0.3-0.3h-0.2l-1.8-1.7v-0.3l-0.3-0.3v-0.3l-0.3-0.3v-0.3l-0.3-0.3v-0.3l-0.3-0.3v-0.9l-0.3-0.3v-0.8l-1.1 1.1v0.3l-3.6 3.5h-0.2l-0.9 0.9h-0.3l-0.6 0.6h-0.3l-0.3 0.3h-0.6l-0.3 0.3h-2.3l-0.3-0.3h-0.3l-1.2-1.2v-0.3l-0.3-0.3v-0.2l-0.3-0.3v-0.6l-0.2-0.3v-0.6h-0.3l-0.9 0.9h-0.3l-1.2 1.1h-0.3l-1.4 1.5h-0.3l-0.6 0.6h-0.3l-0.6 0.6h-0.3l-0.3 0.3h-0.6l-0.3 0.3h-2l-0.3 0.3h-0.3l-0.3-0.3h-0.9l-0.3-0.3h-0.3l-2-2.1v-0.3l-0.3-0.3v-0.5l-0.3-0.3v-0.6l-0.3-0.3v-2.4l-0.3-0.3v-1.1h-0.3v0.3l-0.6 0.6v0.2l-0.8 0.9v0.3l-0.9 0.9v0.3l-1.2 1.2v0.3l-1.8 1.7h-0.2l-0.6 0.6h-0.3l-0.6 0.6h-0.3l-0.3 0.3h-0.3l-0.6 0.6h-0.6l-0.3 0.3h-2.3l-0.3-0.3h-0.3l-0.3-0.3h-0.3l-0.3-0.3h-0.3l-1.1-1.2v-0.3l-0.3-0.3v-0.3l-0.3-0.3v-0.3l-0.3-0.3v-0.2l-0.3-0.3v-0.9l-0.3-0.3v-4.4l-1.2 1.2v0.3l-0.8 0.8v0.3l-1.5 1.5v0.3l-4.1 4.1h-0.3l-0.3 0.3h-0.3l-0.3 0.3h-1.7l-0.3 0.3h-2.7l-0.3-0.3h-0.3l-0.2-0.3h-0.3l-0.3-0.3h-0.3l-0.3-0.3v-0.3l-0.9-0.9v-0.3l-0.3-0.3v-0.3l-0.3-0.2v-0.3l-0.3-0.3v-1.2l-0.3-0.3v-2.3l0.3-0.3h-0.3v0.3l-0.8 0.8v0.3l-0.6 0.6v0.3l-0.9 0.9v0.3l-1.5 1.4v0.3l-1.4 1.5v0.3l-0.6 0.6h-0.3l-0.9 0.9h-0.3l-0.3 0.3h-0.6l-0.3 0.2h-1.1l-0.3 0.3h-1.5l-0.3-0.3h-0.6l-1.4-1.4v-0.3l-0.3-0.3v-0.3l-0.3-0.3v-0.3l-0.3-0.3v-0.6l-0.3-0.3v-4.6h-0.3v0.3l-0.6 0.5v0.3l-0.9 0.9v0.3l-0.6 0.6v0.3l-0.8 0.9v0.3l-0.9 0.8v0.3l-1.5 1.5v0.3l-4.7 4.7h-0.3l-0.2 0.3h-0.3l-0.3 0.3h-3.3l-0.3-0.3h-0.2l-0.3-0.3h-0.3l-0.9-0.9v-0.3l-0.6-0.6v-0.3l-0.3-0.3v-1.1l-0.3-0.3v-1.5l-0.3-0.3v-6.1l-0.3 0.2v0.3l-1.1 1.2v0.3l-1.5 1.5v0.3l-2.6 2.6v0.3l-7.4 7.3h-0.3l-0.5 0.6h-0.6l-0.3 0.3h-0.6z"/>
		<path class="s1" d="m56.9 81.3l0.9-0.8h0.3l2.6-2.7v-0.3l2.4-2.3v-0.3l0.8-0.9v-0.3l1.5-1.4v-0.3l1.5-1.5v-0.3l1.7-1.8v-0.2l1.2-1.2v-0.3l0.9-0.9v-0.3l0.6-0.6v-0.3l0.5-0.5v-0.3l0.6-0.6v-0.3l0.3-0.3v-0.3l0.6-0.6v-0.3l0.6-0.6v-0.3l0.3-0.3v-0.8l0.3-0.3v-0.6l0.3-0.3v-0.9l0.3-0.3v-0.9l0.3-0.3v-0.8l0.2-0.3v-0.6l0.3-0.3v-0.6l0.3-0.3v-0.6l0.3-0.3v-1.1l-0.3 0.3h-0.3l-0.8 0.8h-0.3l-1.2 1.2h-0.3l-7 7v0.3l-0.9 0.9v0.3l-0.3 0.3v0.3l-0.6 0.6v0.3l-0.6 0.6v0.3l-0.6 0.5v0.3l-0.5 0.6v0.3l-0.6 0.6v0.3l-0.3 0.3v0.3l-0.3 0.3v0.3l-0.3 0.3v0.2l-0.3 0.3v0.3l-0.3 0.3v0.3l-0.3 0.3v0.3l-0.3 0.3v0.3l-0.3 0.3v0.6l-0.3 0.3v0.3l-0.3 0.2v0.6l-0.3 0.3v0.6l-0.2 0.3v0.6l-0.3 0.3v0.6l-0.3 0.3v0.5l-0.3 0.3v0.6l-0.3 0.3v0.9l-0.3 0.3v1.2l-0.3 0.3z"/>
		<path class="s0" d="m66.3 114.4h-2.1l-0.6-0.5h-0.3l-0.8-0.9v-0.3l-0.3-0.3v-1.8l0.3-0.3v-0.3l0.3-0.2v-0.3l0.5-0.6h0.3l0.3-0.3h0.3l0.3-0.3h0.6l0.3-0.3h0.9l0.3-0.3h0.6l0.2-0.3h0.9l0.3-0.3h0.6l0.3-0.3h0.9l0.3-0.3h0.6l0.2-0.3h0.9l0.3-0.3h0.6l0.3-0.2h0.9l0.3-0.3h0.8l0.3-0.3h0.6l0.3-0.3h0.9l0.3-0.3h0.6l0.3-0.3h0.9l0.2-0.3h0.9l0.3-0.3h0.9l0.3-0.3h0.6l0.3-0.3h0.8l0.3-0.3h1.2l0.3-0.3h0.6l0.3-0.3h1.2l0.2-0.3h1.2l0.3-0.2h0.6l0.3-0.3h1.5l0.2-0.3h0.9l0.3-0.3h1.5l0.3-0.3h1.1l0.3-0.3h0.6l0.3-0.3h1.5l0.3-0.3h1.2l0.2-0.3h1.5l0.3-0.3h1.5l0.3-0.3h1.1l0.3-0.3h0.9l0.3-0.3h1.5l0.3-0.3h1.4l0.3-0.3h1.2l0.3-0.2h2l0.3-0.3h2.1l0.3-0.3h1.7l0.3-0.3h1.8l0.3-0.3 0.3 0.3h0.3l0.2-0.3h1.5l0.3-0.3h2.1l0.2-0.3h2.4l0.3-0.3h2l0.3-0.3h2.7l0.3-0.3h4.4l0.2-0.3h4.4l0.3-0.3h6.8l0.3-0.3h13.7l0.3 0.3h5.3l0.3 0.3h1.7l0.3 0.3h5l0.3 0.3h2.9l0.3 0.3h3l0.3 0.3h1.4l0.3 0.3h2.1l0.3 0.3h1.1l0.3 0.3h1.8l0.3 0.3h2.9l0.3 0.3h1.2l0.3 0.3h1.7l0.3 0.2h2.1l0.3 0.3h0.8l0.3 0.3h0.6l0.3 0.3h0.3l1.2 1.2v0.3l0.3 0.3v1.5l-0.3 0.2v0.3l-1.2 1.2h-0.6l-0.3 0.3h-0.6l-0.3-0.3h-0.8l-0.3-0.3h-0.9l-0.3-0.3h-0.9l-0.3-0.3h-0.8l-0.3-0.3h-0.9l-0.3-0.3h-2.4l-0.2-0.2h-2.4l-0.3-0.3h-2.9l-0.3-0.3h-1.8l-0.3-0.3h-2.3l-0.3-0.3h-2.6l-0.3-0.3h-3.2l-0.3-0.3h-9.1l-0.3-0.3h-7.3l-0.3-0.3h-4.7l-0.3 0.3h-2.7l-0.2 0.3-0.3-0.3h-0.3l-0.3 0.3h-10l-0.3 0.3h-3.5l-0.3 0.3h-3.2l-0.3 0.3h-2.1l-0.2 0.3h-1.5l-0.3 0.3h-0.3l-0.3-0.3-0.3 0.3h-2l-0.3 0.3h-1.8l-0.3 0.2h-2.3l-0.3 0.3h-0.9l-0.3 0.3h-2l-0.3 0.3h-1.5l-0.3 0.3h-2.3l-0.3 0.3h-1.5l-0.3 0.3h-0.9l-0.3 0.3h-1.7l-0.3 0.3h-1.2l-0.3 0.3h-0.8l-0.3 0.3h-1.5l-0.3 0.3h-0.9l-0.3 0.3h-1.1l-0.3 0.3h-1.5l-0.3 0.2h-0.6l-0.3 0.3h-1.4l-0.3 0.3h-1.5l-0.3 0.3h-0.9l-0.3 0.3h-1.1l-0.3 0.3h-0.9l-0.3 0.3h-0.9l-0.3 0.3h-0.8l-0.3 0.3h-0.9l-0.3 0.3h-0.9l-0.3 0.3h-1.2l-0.2 0.3h-0.9l-0.3 0.3h-0.9l-0.3 0.3h-0.9l-0.3 0.2h-0.8l-0.3 0.3h-0.9l-0.3 0.3h-0.6l-0.3 0.3h-0.9l-0.3 0.3h-0.3l-0.2 0.3h-0.9l-0.3 0.3h-0.3l-0.3 0.3h-0.9l-0.3 0.3h-0.6l-0.3 0.3h-0.5l-0.3 0.3h-0.6l-0.3 0.3h-0.6l-0.3 0.3h-0.3l-0.3 0.3h-0.6l-0.3 0.2h-0.8z"/>
	</g>
</svg>